<svg width="166" height="58" viewBox="0 0 166 58" fill="none" xmlns="http://www.w3.org/2000/svg">
<path d="M42.422 9.32958C42.422 14.2061 38.5383 18.1592 33.7473 18.1592C28.9565 18.1592 25.0726 14.2061 25.0726 9.32958C25.0726 4.45317 28.9565 0.5 33.7473 0.5C38.5383 0.5 42.422 4.45317 42.422 9.32958Z" fill="#203D3B"/>
<path d="M29.0714 48.1935C13.2918 48.1935 0.5 35.1736 0.5 19.1124V5.1532C16.2796 5.1532 29.0721 18.1734 29.0721 34.2348L29.0714 48.1935Z" fill="#203D3B"/>
<path d="M60.5 14.4592C44.7208 14.4592 31.9289 27.4795 31.9289 43.5408V57.5C47.7088 57.5 60.5 44.4795 60.5 28.4184V14.4592Z" fill="#203D3B"/>
<path d="M79.7247 30.72C78.1114 30.72 76.7254 30.3973 75.5667 29.752C74.4227 29.092 73.5427 28.168 72.9267 26.98C72.3107 25.7773 72.0027 24.362 72.0027 22.734C72.0027 21.5167 72.1787 20.424 72.5307 19.456C72.8827 18.4733 73.3887 17.6373 74.0487 16.948C74.7087 16.244 75.5154 15.7087 76.4687 15.342C77.4367 14.9607 78.5221 14.77 79.7247 14.77C80.5314 14.77 81.3234 14.8727 82.1007 15.078C82.8781 15.2833 83.5601 15.5767 84.1467 15.958C84.4547 16.1487 84.6601 16.3833 84.7627 16.662C84.8654 16.926 84.8874 17.19 84.8287 17.454C84.7701 17.7033 84.6454 17.916 84.4547 18.092C84.2787 18.268 84.0514 18.3707 83.7727 18.4C83.5087 18.4147 83.2154 18.3193 82.8927 18.114C82.4381 17.8207 81.9467 17.608 81.4187 17.476C80.8907 17.344 80.3554 17.278 79.8127 17.278C78.7714 17.278 77.8914 17.4907 77.1727 17.916C76.4541 18.3413 75.9114 18.9573 75.5447 19.764C75.1781 20.5707 74.9947 21.5607 74.9947 22.734C74.9947 23.8927 75.1781 24.8827 75.5447 25.704C75.9114 26.5253 76.4541 27.1487 77.1727 27.574C77.8914 27.9993 78.7714 28.212 79.8127 28.212C80.3701 28.212 80.9201 28.146 81.4627 28.014C82.0054 27.8673 82.5187 27.6473 83.0027 27.354C83.3254 27.1633 83.6114 27.0827 83.8607 27.112C84.1247 27.1267 84.3447 27.2147 84.5207 27.376C84.6967 27.5373 84.8141 27.7427 84.8727 27.992C84.9314 28.2267 84.9167 28.476 84.8287 28.74C84.7407 28.9893 84.5647 29.2093 84.3007 29.4C83.7141 29.8253 83.0101 30.1553 82.1887 30.39C81.3821 30.61 80.5607 30.72 79.7247 30.72ZM91.5099 30.676C91.0552 30.676 90.7032 30.5513 90.4539 30.302C90.2192 30.038 90.1019 29.6787 90.1019 29.224V16.266C90.1019 15.7967 90.2192 15.4373 90.4539 15.188C90.7032 14.9387 91.0552 14.814 91.5099 14.814C91.9645 14.814 92.3092 14.9387 92.5439 15.188C92.7932 15.4373 92.9179 15.7967 92.9179 16.266V21.458H100.904V16.266C100.904 15.7967 101.021 15.4373 101.256 15.188C101.505 14.9387 101.857 14.814 102.312 14.814C102.767 14.814 103.111 14.9387 103.346 15.188C103.595 15.4373 103.72 15.7967 103.72 16.266V29.224C103.72 29.6787 103.595 30.038 103.346 30.302C103.111 30.5513 102.767 30.676 102.312 30.676C101.857 30.676 101.505 30.5513 101.256 30.302C101.021 30.038 100.904 29.6787 100.904 29.224V23.812H92.9179V29.224C92.9179 29.6787 92.8005 30.038 92.5659 30.302C92.3312 30.5513 91.9792 30.676 91.5099 30.676ZM109.911 30.676C109.559 30.676 109.273 30.5953 109.053 30.434C108.848 30.2727 108.723 30.06 108.679 29.796C108.635 29.5173 108.687 29.2093 108.833 28.872L114.641 16.002C114.832 15.5767 115.059 15.276 115.323 15.1C115.602 14.9093 115.917 14.814 116.269 14.814C116.607 14.814 116.907 14.9093 117.171 15.1C117.45 15.276 117.685 15.5767 117.875 16.002L123.705 28.872C123.867 29.2093 123.925 29.5173 123.881 29.796C123.837 30.0747 123.713 30.2947 123.507 30.456C123.302 30.6027 123.031 30.676 122.693 30.676C122.283 30.676 121.96 30.5807 121.725 30.39C121.505 30.1847 121.307 29.8767 121.131 29.466L119.701 26.144L120.889 26.914H111.605L112.793 26.144L111.385 29.466C111.195 29.8913 110.997 30.1993 110.791 30.39C110.586 30.5807 110.293 30.676 109.911 30.676ZM116.225 18.048L113.145 25.374L112.573 24.67H119.921L119.371 25.374L116.269 18.048H116.225ZM130.089 30.676C129.678 30.676 129.363 30.5587 129.143 30.324C128.923 30.0893 128.813 29.7667 128.813 29.356V16.134C128.813 15.7087 128.93 15.386 129.165 15.166C129.399 14.9313 129.722 14.814 130.133 14.814C130.499 14.814 130.785 14.8873 130.991 15.034C131.211 15.166 131.409 15.4007 131.585 15.738L137.019 25.792H136.315L141.749 15.738C141.925 15.4007 142.115 15.166 142.321 15.034C142.526 14.8873 142.812 14.814 143.179 14.814C143.589 14.814 143.905 14.9313 144.125 15.166C144.345 15.386 144.455 15.7087 144.455 16.134V29.356C144.455 29.7667 144.345 30.0893 144.125 30.324C143.919 30.5587 143.604 30.676 143.179 30.676C142.768 30.676 142.453 30.5587 142.233 30.324C142.013 30.0893 141.903 29.7667 141.903 29.356V19.17H142.387L137.767 27.596C137.62 27.8453 137.466 28.0287 137.305 28.146C137.143 28.2633 136.923 28.322 136.645 28.322C136.366 28.322 136.139 28.2633 135.963 28.146C135.787 28.014 135.633 27.8307 135.501 27.596L130.837 19.148H131.365V29.356C131.365 29.7667 131.255 30.0893 131.035 30.324C130.829 30.5587 130.514 30.676 130.089 30.676ZM150.662 30.676C150.31 30.676 150.024 30.5953 149.804 30.434C149.599 30.2727 149.474 30.06 149.43 29.796C149.386 29.5173 149.438 29.2093 149.584 28.872L155.392 16.002C155.583 15.5767 155.81 15.276 156.074 15.1C156.353 14.9093 156.668 14.814 157.02 14.814C157.358 14.814 157.658 14.9093 157.922 15.1C158.201 15.276 158.436 15.5767 158.626 16.002L164.456 28.872C164.618 29.2093 164.676 29.5173 164.632 29.796C164.588 30.0747 164.464 30.2947 164.258 30.456C164.053 30.6027 163.782 30.676 163.444 30.676C163.034 30.676 162.711 30.5807 162.476 30.39C162.256 30.1847 162.058 29.8767 161.882 29.466L160.452 26.144L161.64 26.914H152.356L153.544 26.144L152.136 29.466C151.946 29.8913 151.748 30.1993 151.542 30.39C151.337 30.5807 151.044 30.676 150.662 30.676ZM156.976 18.048L153.896 25.374L153.324 24.67H160.672L160.122 25.374L157.02 18.048H156.976ZM91.0796 38.9545C91.0313 38.4687 90.8168 38.0824 90.4361 37.7955C90.0555 37.5085 89.5768 37.3651 89.0001 37.3651C88.5938 37.3651 88.2359 37.4347 87.9262 37.5739C87.6194 37.7131 87.3779 37.9062 87.2018 38.1534C87.0285 38.3977 86.9418 38.6761 86.9418 38.9886C86.9418 39.2188 86.9915 39.4205 87.091 39.5938C87.1904 39.767 87.3239 39.9162 87.4915 40.0412C87.662 40.1634 87.8495 40.2685 88.054 40.3565C88.2614 40.4446 88.4702 40.5185 88.6805 40.5781L89.6009 40.8423C89.8793 40.919 90.1577 41.017 90.4361 41.1364C90.7145 41.2557 90.9688 41.4062 91.1989 41.5881C91.4319 41.767 91.618 41.9872 91.7572 42.2486C91.8992 42.5071 91.9702 42.8182 91.9702 43.1818C91.9702 43.6477 91.8495 44.0668 91.608 44.4389C91.3665 44.8111 91.0199 45.1065 90.5682 45.3253C90.1165 45.5412 89.5753 45.6491 88.9447 45.6491C88.3509 45.6491 87.8353 45.5511 87.3978 45.3551C86.9603 45.1562 86.6165 44.8821 86.3665 44.5327C86.1165 44.1832 85.9759 43.7784 85.9447 43.3182H86.7628C86.7913 43.6619 86.9049 43.9531 87.1038 44.1918C87.3026 44.4304 87.5611 44.6122 87.8793 44.7372C88.1975 44.8594 88.5526 44.9205 88.9447 44.9205C89.3793 44.9205 89.7657 44.848 90.1038 44.7031C90.4447 44.5554 90.7117 44.3509 90.9049 44.0895C91.1009 43.8253 91.1989 43.5185 91.1989 43.169C91.1989 42.8736 91.1222 42.6264 90.9688 42.4276C90.8154 42.2259 90.6009 42.0568 90.3253 41.9205C90.0526 41.7841 89.7359 41.6634 89.3751 41.5582L88.331 41.2514C87.6464 41.0469 87.1151 40.7642 86.7373 40.4034C86.3594 40.0426 86.1705 39.5824 86.1705 39.0227C86.1705 38.554 86.2955 38.142 86.5455 37.7869C86.7984 37.429 87.1393 37.1506 87.5682 36.9517C88.0001 36.75 88.4844 36.6491 89.0214 36.6491C89.564 36.6491 90.0441 36.7486 90.4617 36.9474C90.8793 37.1463 91.2103 37.4205 91.4546 37.7699C91.7018 38.1165 91.8339 38.5114 91.8509 38.9545H91.0796ZM100.008 36.7727H100.928L104.094 44.375H104.171L107.337 36.7727H108.258V45.5H107.508V38.456H107.44L104.495 45.5H103.771L100.826 38.456H100.758V45.5H100.008V36.7727ZM116.711 45.5H115.876L119.05 36.7727H119.903L123.077 45.5H122.242L119.506 37.8082H119.447L116.711 45.5ZM117.312 42.1548H121.641V42.8707H117.312V42.1548ZM130.693 45.5V36.7727H133.51C134.129 36.7727 134.646 36.8849 135.061 37.1094C135.479 37.331 135.793 37.6392 136.003 38.0341C136.216 38.4261 136.322 38.8764 136.322 39.3849C136.322 39.8935 136.216 40.3423 136.003 40.7315C135.793 41.1207 135.48 41.4247 135.065 41.6435C134.651 41.8622 134.136 41.9716 133.523 41.9716H131.124V41.2429H133.501C133.956 41.2429 134.334 41.1676 134.635 41.017C134.939 40.8665 135.165 40.652 135.312 40.3736C135.463 40.0952 135.538 39.7656 135.538 39.3849C135.538 39.0043 135.463 38.6719 135.312 38.3878C135.162 38.1009 134.935 37.8793 134.631 37.723C134.33 37.5668 133.949 37.4886 133.489 37.4886H131.49V45.5H130.693ZM134.541 41.5625L136.689 45.5H135.768L133.642 41.5625H134.541ZM143.855 37.4886V36.7727H150.183V37.4886H147.418V45.5H146.621V37.4886H143.855Z" fill="#203D3B"/>
</svg>
