<svg width="574" height="574" viewBox="0 0 574 574" fill="none" xmlns="http://www.w3.org/2000/svg">
<rect x="52" y="52" width="470" height="470" rx="235" fill="#037769" fill-opacity="0.44"/>
<g filter="url(#filter0_b_1106_825)">
<rect width="574" height="574" rx="287" fill="white" fill-opacity="0.07"/>
</g>
<g clip-path="url(#clip0_1106_825)">
<g clip-path="url(#clip1_1106_825)">
<rect x="89.5" y="40.5" width="396" height="346" rx="8" fill="#F2F2F2"/>
<path d="M89.5 48.5C89.5 44.0817 93.0817 40.5 97.5 40.5H477.5C481.918 40.5 485.5 44.0817 485.5 48.5V67.5H89.5V48.5Z" fill="#C5CFD6"/>
<path fill-rule="evenodd" clip-rule="evenodd" d="M102.5 58.5C104.709 58.5 106.5 56.7091 106.5 54.5C106.5 52.2909 104.709 50.5 102.5 50.5C100.291 50.5 98.5 52.2909 98.5 54.5C98.5 56.7091 100.291 58.5 102.5 58.5Z" fill="#F2F2F2"/>
<path fill-rule="evenodd" clip-rule="evenodd" d="M114.5 58.5C116.709 58.5 118.5 56.7091 118.5 54.5C118.5 52.2909 116.709 50.5 114.5 50.5C112.291 50.5 110.5 52.2909 110.5 54.5C110.5 56.7091 112.291 58.5 114.5 58.5Z" fill="#F2F2F2"/>
<path fill-rule="evenodd" clip-rule="evenodd" d="M126.5 58.5C128.709 58.5 130.5 56.7091 130.5 54.5C130.5 52.2909 128.709 50.5 126.5 50.5C124.291 50.5 122.5 52.2909 122.5 54.5C122.5 56.7091 124.291 58.5 126.5 58.5Z" fill="#F2F2F2"/>
<g clip-path="url(#clip2_1106_825)">
<g clip-path="url(#clip3_1106_825)">
<rect x="399.5" y="172.5" width="70" height="194" rx="8" fill="white"/>
<g clip-path="url(#clip4_1106_825)">
<rect x="417.5" y="190.5" width="34" height="26" rx="4" fill="#DDE3E9"/>
<rect x="417.5" y="224.5" width="34" height="25" rx="4" fill="#AFB9C5"/>
<rect x="417.5" y="257.5" width="34" height="25" rx="4" fill="#DDE3E9"/>
<rect x="417.5" y="323.5" width="34" height="25" rx="4" fill="#DDE3E9"/>
<rect x="417.5" y="290.5" width="34" height="25" rx="4" fill="#C5CFD6"/>
</g>
</g>
<rect x="399.5" y="83.5" width="70" height="81" rx="8" fill="white"/>
<g clip-path="url(#clip5_1106_825)">
<path fill-rule="evenodd" clip-rule="evenodd" d="M434.5 130.5C443.337 130.5 450.5 123.337 450.5 114.5C450.5 105.663 443.337 98.5 434.5 98.5C425.663 98.5 418.5 105.663 418.5 114.5C418.5 123.337 425.663 130.5 434.5 130.5Z" fill="#DDE3E9"/>
<rect x="409.5" y="134.5" width="50" height="6" rx="3" fill="#DDE3E9"/>
<rect x="417.5" y="144.5" width="34" height="6" rx="3" fill="#DDE3E9"/>
</g>
<g clip-path="url(#clip6_1106_825)">
<g clip-path="url(#clip7_1106_825)">
<rect x="105.5" y="83.5" width="286" height="47" rx="4" fill="white"/>
<g clip-path="url(#clip8_1106_825)">
<rect x="114.5" y="97.6" width="228" height="7.05" rx="3" fill="#DDE3E9"/>
<rect x="114.5" y="109.35" width="153.041" height="7.05" rx="3" fill="#DDE3E9"/>
</g>
<path fill-rule="evenodd" clip-rule="evenodd" d="M360.935 114C364.801 114 367.935 110.866 367.935 107C367.935 103.134 364.801 100 360.935 100C357.069 100 353.935 103.134 353.935 107C353.935 110.866 357.069 114 360.935 114Z" fill="#DDE3E9"/>
<path fill-rule="evenodd" clip-rule="evenodd" d="M360.935 110C362.592 110 363.935 108.657 363.935 107C363.935 105.343 362.592 104 360.935 104C359.278 104 357.935 105.343 357.935 107C357.935 108.657 359.278 110 360.935 110Z" fill="#F2F2F2"/>
</g>
<g clip-path="url(#clip9_1106_825)">
<rect x="105.5" y="138.5" width="286" height="39" rx="4" fill="white"/>
<g clip-path="url(#clip10_1106_825)">
<rect x="114.5" y="150.2" width="228" height="5.85" rx="2.925" fill="#DDE3E9"/>
<rect x="114.5" y="159.95" width="153.041" height="5.85" rx="2.925" fill="#DDE3E9"/>
</g>
<path fill-rule="evenodd" clip-rule="evenodd" d="M360.935 165C364.801 165 367.935 161.866 367.935 158C367.935 154.134 364.801 151 360.935 151C357.069 151 353.935 154.134 353.935 158C353.935 161.866 357.069 165 360.935 165Z" fill="#DDE3E9"/>
<path fill-rule="evenodd" clip-rule="evenodd" d="M360.935 161C362.592 161 363.935 159.657 363.935 158C363.935 156.343 362.592 155 360.935 155C359.278 155 357.935 156.343 357.935 158C357.935 159.657 359.278 161 360.935 161Z" fill="#F2F2F2"/>
</g>
<g clip-path="url(#clip11_1106_825)">
<rect x="105.5" y="185.5" width="286" height="39" rx="4" fill="white"/>
<g clip-path="url(#clip12_1106_825)">
<rect x="114.5" y="197.2" width="228" height="5.85" rx="2.925" fill="#DDE3E9"/>
<rect x="114.5" y="206.95" width="153.041" height="5.85" rx="2.925" fill="#DDE3E9"/>
</g>
<path fill-rule="evenodd" clip-rule="evenodd" d="M360.935 212C364.801 212 367.935 208.866 367.935 205C367.935 201.134 364.801 198 360.935 198C357.069 198 353.935 201.134 353.935 205C353.935 208.866 357.069 212 360.935 212Z" fill="#DDE3E9"/>
<path fill-rule="evenodd" clip-rule="evenodd" d="M360.935 208C362.592 208 363.935 206.657 363.935 205C363.935 203.343 362.592 202 360.935 202C359.278 202 357.935 203.343 357.935 205C357.935 206.657 359.278 208 360.935 208Z" fill="#AFB9C5"/>
</g>
<g clip-path="url(#clip13_1106_825)">
<rect x="105.5" y="326.5" width="286" height="39" rx="4" fill="white"/>
<g clip-path="url(#clip14_1106_825)">
<rect x="114.5" y="338.2" width="228" height="5.85" rx="2.925" fill="#DDE3E9"/>
<rect x="114.5" y="347.95" width="153.041" height="5.85" rx="2.925" fill="#DDE3E9"/>
</g>
<path fill-rule="evenodd" clip-rule="evenodd" d="M360.935 353C364.801 353 367.935 349.866 367.935 346C367.935 342.134 364.801 339 360.935 339C357.069 339 353.935 342.134 353.935 346C353.935 349.866 357.069 353 360.935 353Z" fill="#DDE3E9"/>
<path fill-rule="evenodd" clip-rule="evenodd" d="M360.935 349C362.592 349 363.935 347.657 363.935 346C363.935 344.343 362.592 343 360.935 343C359.278 343 357.935 344.343 357.935 346C357.935 347.657 359.278 349 360.935 349Z" fill="#F2F2F2"/>
</g>
<g clip-path="url(#clip15_1106_825)">
<rect x="105.5" y="279.5" width="286" height="39" rx="4" fill="white"/>
<g clip-path="url(#clip16_1106_825)">
<rect x="114.5" y="291.2" width="228" height="5.85" rx="2.925" fill="#DDE3E9"/>
<rect x="114.5" y="300.95" width="153.041" height="5.85" rx="2.925" fill="#DDE3E9"/>
</g>
<path fill-rule="evenodd" clip-rule="evenodd" d="M360.935 306C364.801 306 367.935 302.866 367.935 299C367.935 295.134 364.801 292 360.935 292C357.069 292 353.935 295.134 353.935 299C353.935 302.866 357.069 306 360.935 306Z" fill="#DDE3E9"/>
<path fill-rule="evenodd" clip-rule="evenodd" d="M360.935 302C362.592 302 363.935 300.657 363.935 299C363.935 297.343 362.592 296 360.935 296C359.278 296 357.935 297.343 357.935 299C357.935 300.657 359.278 302 360.935 302Z" fill="#F2F2F2"/>
</g>
<g clip-path="url(#clip17_1106_825)">
<rect x="105.5" y="232.5" width="286" height="39" rx="4" fill="white"/>
<g clip-path="url(#clip18_1106_825)">
<rect x="114.5" y="244.2" width="228" height="5.85" rx="2.925" fill="#DDE3E9"/>
<rect x="114.5" y="253.95" width="153.041" height="5.85" rx="2.925" fill="#DDE3E9"/>
</g>
<path fill-rule="evenodd" clip-rule="evenodd" d="M360.935 259C364.801 259 367.935 255.866 367.935 252C367.935 248.134 364.801 245 360.935 245C357.069 245 353.935 248.134 353.935 252C353.935 255.866 357.069 259 360.935 259Z" fill="#DDE3E9"/>
<path fill-rule="evenodd" clip-rule="evenodd" d="M360.935 255C362.592 255 363.935 253.657 363.935 252C363.935 250.343 362.592 249 360.935 249C359.278 249 357.935 250.343 357.935 252C357.935 253.657 359.278 255 360.935 255Z" fill="#F2F2F2"/>
</g>
</g>
</g>
</g>
<path fill-rule="evenodd" clip-rule="evenodd" d="M142.645 222.81C148.834 225.437 154.675 226.306 157.212 225.26C163.574 222.636 160.798 198.476 154.357 189.703C147.916 180.93 121.079 180.483 122.398 199.474C122.856 206.065 126.424 211.503 131.153 215.685L128.626 250.546L149.779 247.573L142.645 222.81Z" fill="#B28B67"/>
<path fill-rule="evenodd" clip-rule="evenodd" d="M144.549 180.54C141.535 180.068 137.298 180.36 135.561 180.809C136.228 178.27 136.251 175.542 135.56 172.986C134.889 170.502 133.454 168.509 132.089 166.401C131.46 165.429 130.767 164.472 129.839 163.791C128.894 163.098 127.767 162.711 126.627 162.611C125.461 162.509 124.283 162.696 123.186 163.092C122.7 163.267 122.283 163.559 121.81 163.754C121.326 163.955 121.038 163.675 120.629 163.412C119.643 162.776 118.302 162.582 117.171 162.604C115.902 162.629 114.634 162.999 113.502 163.575C112.399 164.136 111.378 164.938 110.673 165.998C110.359 166.469 110.087 166.994 109.941 167.552C109.882 167.781 109.885 167.911 109.679 168.02C109.49 168.122 109.256 168.157 109.059 168.256C107.157 169.211 105.666 170.989 105.014 173.095C104.633 174.323 104.661 176.388 105.051 178.652C105.441 180.916 108.335 186.56 110.565 188.454C112.556 190.144 115.262 191.063 117.78 191.279C116.42 193.351 115.666 195.808 115.199 198.264C114.691 200.933 114.528 203.654 114.709 206.378C114.881 208.966 115.244 211.678 116.199 214.1C117.092 216.366 118.567 218.12 120.75 219.057C121.75 219.486 122.801 219.767 123.852 220.011C124.888 220.251 125.925 220.48 126.985 220.547C128.989 220.675 131.225 220.291 132.508 218.533C132.971 217.9 133.467 217.116 133.766 216.38C133.874 216.115 133.937 215.943 133.731 215.728C133.484 215.47 133.119 215.297 132.822 215.11C131.13 214.044 129.953 212.469 129.432 210.474C128.903 208.449 129.084 205.715 130.965 204.534C133.287 203.077 136.194 203.967 138.563 204.844C139.036 201.419 140.541 198.184 143.341 196.25C146.44 194.11 150.237 193.377 153.461 191.462C154.301 190.963 155.15 190.411 155.7 189.557C155.93 189.2 156.194 188.742 156.245 188.306C156.311 187.733 155.888 187.32 155.552 186.928C153.766 184.849 147.563 181.013 144.549 180.54Z" fill="#191847"/>
<path fill-rule="evenodd" clip-rule="evenodd" d="M136.2 320.43L202.333 430.659L251.913 523.849H262.592L179.52 320.43L136.2 320.43Z" fill="#997659"/>
<path fill-rule="evenodd" clip-rule="evenodd" d="M248.066 518.649C246.993 518.186 245.721 518.661 245.326 519.761C244.689 521.536 243.89 524.051 243.89 525.495C243.89 527.895 244.692 532.5 244.692 532.5C247.485 532.5 294.89 532.5 294.89 532.5C294.89 532.5 296.846 526.051 292.631 525.536C288.415 525.022 285.627 524.608 285.627 524.608L262.397 514.283C261.883 514.055 261.282 514.295 261.067 514.815L259.61 518.337C259.61 518.337 255.708 520.153 253.268 520.153C251.848 520.153 249.653 519.334 248.066 518.649Z" fill="#E4E4E4"/>
<path fill-rule="evenodd" clip-rule="evenodd" d="M238.143 508.926L258.738 502.715C258.738 502.715 245.203 462.376 225.561 413.931C205.918 365.486 183.37 320.43 183.37 320.43H125.203C125.203 320.43 150.272 377.424 178.356 424.003C206.439 470.582 238.143 508.926 238.143 508.926Z" fill="#2C4341"/>
<path fill-rule="evenodd" clip-rule="evenodd" d="M131.854 320.43C125.612 359.165 113.574 408.654 112.437 410.181C111.68 411.199 84.4133 420.309 30.637 437.509L32.9438 446.898C97.0719 437.673 130.862 430.516 134.314 425.427C139.492 417.793 165.346 357.487 175.36 320.43H131.854Z" fill="#B28B67"/>
<path fill-rule="evenodd" clip-rule="evenodd" d="M49.5403 429.393L53.6035 444.515C101.568 448.709 130.956 445.678 141.769 435.423C152.583 425.168 164.906 386.837 178.741 320.43H123.276C114.51 374.808 109.61 403.139 108.575 405.422C107.539 407.704 87.861 415.695 49.5403 429.393Z" fill="#3E5856"/>
<path fill-rule="evenodd" clip-rule="evenodd" d="M34.6201 436.089C34.8921 434.949 34.2002 433.775 33.0438 433.578C31.18 433.261 28.5603 432.914 27.1355 433.164C24.7647 433.581 20.3556 435.168 20.3556 435.168C20.8405 437.91 29.0723 484.455 29.0723 484.455C29.0723 484.455 35.7825 485.256 35.5584 481.027C35.3343 476.799 35.2595 473.989 35.2595 473.989L41.4227 449.395C41.5598 448.848 41.2172 448.295 40.6659 448.174L36.9358 447.356C36.9358 447.356 34.4649 443.84 34.0412 441.444C33.7953 440.054 34.2202 437.765 34.6201 436.089Z" fill="#E4E4E4"/>
<path fill-rule="evenodd" clip-rule="evenodd" d="M198.767 242.203L170.524 263.206L183.52 273.707L202.896 250.292C214.154 245.429 219.178 242.323 217.969 240.973C216.949 239.835 215.596 240.07 214.349 240.286C213.378 240.455 212.472 240.612 211.839 240.1C210.393 238.932 212.13 233.892 213.984 229.179C215.837 224.466 213.252 225.217 211.832 226.057C207.363 230.083 203.008 235.465 198.767 242.203ZM232.819 261.318L220.416 270.566L223.071 283.903C223.071 283.903 230.894 276.417 238.088 273.284C247.262 269.288 250.84 266.719 254.672 260.137C256.723 256.615 257.945 249.943 255.278 248.201C254.254 247.533 251.123 249.891 247.928 252.298C245.493 254.132 243.021 255.994 241.417 256.565C239.258 257.334 239.114 254.424 239 252.099C238.917 250.43 238.85 249.063 238.063 249.572C234.139 250.192 232.819 261.318 232.819 261.318Z" fill="#997659"/>
<path fill-rule="evenodd" clip-rule="evenodd" d="M155.103 261.579C165.802 259.96 179.773 255.696 193.663 243.905L201.521 256.375C192.468 268.258 178.882 278.885 165.902 280.341C155.673 281.487 148.739 269.932 155.103 261.579Z" fill="#DFD3A5"/>
<path fill-rule="evenodd" clip-rule="evenodd" d="M139.022 356.842C128.649 356.95 119.118 357.048 113.724 358.917C104.669 339.64 108.054 326.227 111.178 313.844C113.061 306.381 114.85 299.292 113.764 291.52C110.6 268.888 123.931 231.493 126.612 231.116L127.382 231.008L148.633 228.021L151.066 227.679C154.128 241.53 160.925 256.036 167.766 270.636C169.363 274.046 170.963 277.46 172.519 280.873C190.856 282.397 228.351 262.851 228.351 262.851C228.351 262.851 241.202 281.999 241.68 290.855C220.391 306.045 201.454 314.146 185.284 316.777C187.147 326.3 187.259 335.595 184.496 344.49C180.795 356.409 158.435 356.641 139.022 356.842Z" fill="#FEF2C7"/>
<path fill-rule="evenodd" clip-rule="evenodd" d="M403.915 222.573C398.617 226.713 393.201 229.064 390.479 228.71C383.655 227.822 380.083 203.767 384.034 193.626C387.985 183.485 413.792 176.107 417.433 194.792C418.696 201.277 416.658 207.453 413.172 212.716L424.635 245.736L403.435 248.339L403.915 222.573Z" fill="#B28B67"/>
<path fill-rule="evenodd" clip-rule="evenodd" d="M394.772 181.178C397.51 180.378 404.995 179.141 406.383 178.97C407.269 178.862 408.255 178.946 408.681 178.069C409.029 177.352 408.733 176.247 408.767 175.46C408.806 174.546 408.909 173.635 409.015 172.727C409.316 170.141 409.944 167.64 410.958 165.239C412.86 160.735 415.999 157.004 420.237 154.538C424.918 151.814 430.448 150.642 435.815 150.419C441.558 150.181 446.935 151.42 452.52 152.522C457.843 153.572 463.283 153.575 468.533 152.098C473.824 150.611 477.54 147.197 481.748 143.874C486.056 140.471 491.149 137.966 496.705 137.716C501.891 137.483 506.886 139.016 511.481 141.32C515.78 143.475 519.45 146.253 521.851 150.501C524.434 155.072 525.081 160.357 522.328 165.014C518.338 171.765 509.72 174.442 502.367 175.184C498.114 175.613 493.854 175.353 489.677 174.44C484.107 173.223 479.102 170.616 473.79 168.654C471.297 167.733 468.751 167.038 466.123 166.635C463.573 166.244 461.106 166.223 459.056 167.982C456.888 169.843 454.961 171.645 452.381 172.96C449.905 174.222 447.226 175.086 444.462 175.404C439.086 176.022 433.586 175.004 428.232 174.527C423.865 174.138 419.202 173.788 414.972 175.197C413.207 175.785 410.657 176.864 410.233 178.82C421.479 179.457 427.466 192.491 425.587 202.831C424.573 208.411 415.282 215.93 411.022 213.584C408.324 212.098 409.54 209.564 410.324 207.893C411.824 204.693 411.993 200.798 408.288 199.153C405.093 197.735 402.483 202.356 402.423 202.358C401.597 202.394 394.038 199.276 388.454 194.058C383.684 194.932 382.567 191.863 383.397 189.138C384.227 186.414 390.989 182.284 394.772 181.178Z" fill="#191847"/>
<path fill-rule="evenodd" clip-rule="evenodd" d="M449.687 320.43C448.082 342.266 344.7 406.556 344.097 408.36C343.695 409.563 376.276 484.388 376.276 484.388L367.239 487.889C367.239 487.889 317.265 408.644 319.832 400.2C323.507 388.111 400.044 320.662 400.044 320.662L449.687 320.43Z" fill="#B28B67"/>
<path fill-rule="evenodd" clip-rule="evenodd" d="M373.898 473.122L359.143 478.477C328.031 443.479 315.836 414.602 318.059 399.889C320.283 385.176 397.995 320.483 397.995 320.483L450.745 320.483C448.945 371.054 353.123 408.553 351.841 410.708C350.56 412.863 363.173 433.969 373.898 473.122Z" fill="#CCB2B1"/>
<path fill-rule="evenodd" clip-rule="evenodd" d="M376.771 482.74C377.621 481.938 378.98 481.951 379.728 482.85C380.936 484.301 382.55 486.391 383.045 487.748C383.868 490.003 384.694 494.604 384.694 494.604C382.07 495.556 337.524 511.721 337.524 511.721C337.524 511.721 333.473 506.328 337.258 504.407C341.043 502.486 343.521 501.146 343.521 501.146L361.807 483.523C362.212 483.133 362.86 483.154 363.24 483.569L365.817 486.382C365.817 486.382 370.107 486.757 372.4 485.925C373.734 485.441 375.514 483.924 376.771 482.74Z" fill="#E4E4E4"/>
<path fill-rule="evenodd" clip-rule="evenodd" d="M437.8 320.43L483.854 430.659L529.118 523.849H518.439L401.6 320.43H437.8Z" fill="#997659"/>
<path fill-rule="evenodd" clip-rule="evenodd" d="M527.074 518.649C528.147 518.186 529.419 518.661 529.814 519.761C530.451 521.536 531.25 524.051 531.25 525.495C531.25 527.895 530.448 532.5 530.448 532.5C527.655 532.5 480.25 532.5 480.25 532.5C480.25 532.5 478.294 526.051 482.509 525.536C486.725 525.022 489.513 524.608 489.513 524.608L512.743 514.283C513.257 514.055 513.858 514.295 514.073 514.815L515.53 518.337C515.53 518.337 519.432 520.153 521.872 520.153C523.292 520.153 525.487 519.334 527.074 518.649Z" fill="#E4E4E4"/>
<path fill-rule="evenodd" clip-rule="evenodd" d="M525.03 504.49L501.301 508.926C482.953 482.033 406.169 371.763 397.75 320.43H450.577C478.691 357.538 507.541 477.152 525.03 504.49Z" fill="#FDE2E1"/>
<path fill-rule="evenodd" clip-rule="evenodd" d="M322.718 293.745L356.447 303.83L347.829 318.139L321.607 302.758C309.364 302.035 303.579 300.833 304.254 299.152C304.822 297.734 306.174 297.492 307.42 297.269C308.39 297.096 309.295 296.934 309.715 296.237C310.674 294.644 307.316 290.502 303.961 286.707C300.606 282.912 303.292 282.734 304.915 283.038C310.492 285.294 316.427 288.863 322.718 293.745ZM468.665 297.604L486.327 291.801C502.564 322.553 512.054 339.333 514.795 342.139C516.806 344.197 528.203 348.735 535.815 350.971C538.871 351.868 538.548 354.389 537.793 355.276C533.031 360.868 527.828 359.751 522.165 358.536C520.526 358.184 518.848 357.824 517.131 357.616C512.686 357.078 511.645 359.451 510.661 361.693C509.79 363.678 508.964 365.561 505.86 365.231C505.925 364.624 506.012 363.942 506.106 363.205C506.716 358.446 507.615 351.426 504.556 347.788C502.986 345.921 491.022 329.193 468.665 297.604Z" fill="#B28B67"/>
<path fill-rule="evenodd" clip-rule="evenodd" d="M410.735 232.542L402.936 232.174C388.274 250.307 386.231 289.798 375.772 296.276C365.883 302.401 350.448 299.545 332.008 295.392L328.078 308.106C346.253 323.447 382.24 333.874 395.074 323.823C415.593 307.754 414.854 259.447 410.735 232.542Z" fill="#3E5856"/>
<path fill-rule="evenodd" clip-rule="evenodd" d="M455.785 324.158C455.785 324.158 409.843 329.799 388.197 332.457C385.109 332.836 385.145 328.319 385.316 326.02C387.289 299.494 403.975 269.113 399.45 232.255L418.571 226.813C437.871 250.689 447.356 281.839 455.785 324.158Z" fill="#DDE3E9"/>
<path fill-rule="evenodd" clip-rule="evenodd" d="M419.606 226.686L419.829 226.659C466.855 248.155 498.396 286.556 514.449 341.861L500.622 346.367C489.899 336.619 476.128 320.201 459.307 297.115C465.367 311.522 470.333 326.452 473.073 340.809L412.233 348.279C396.812 320.05 412.11 227.606 412.11 227.606L416.31 227.091L419.606 226.686Z" fill="#3E5856"/>
<path fill-rule="evenodd" clip-rule="evenodd" d="M253.665 229.209C253.664 229.214 253.664 229.22 253.662 229.226C253.664 229.221 253.663 229.2 253.665 229.209" fill="#C5CFD6"/>
<path fill-rule="evenodd" clip-rule="evenodd" d="M253.662 229.217C253.663 229.218 253.662 229.221 253.663 229.223C253.661 229.218 253.666 229.201 253.662 229.217" fill="#C5CFD6"/>
<path fill-rule="evenodd" clip-rule="evenodd" d="M253.676 229.127C253.674 229.148 253.669 229.169 253.667 229.19C253.668 229.179 253.67 229.171 253.671 229.16C253.633 229.437 253.657 229.257 253.676 229.127" fill="#C5CFD6"/>
<path fill-rule="evenodd" clip-rule="evenodd" d="M253.668 229.191C253.667 229.201 253.665 229.211 253.664 229.221C253.649 229.282 253.668 229.191 253.668 229.191" fill="#C5CFD6"/>
<path fill-rule="evenodd" clip-rule="evenodd" d="M253.663 229.218C253.663 229.217 253.663 229.217 253.664 229.215C253.663 229.217 253.663 229.217 253.663 229.218" fill="#C5CFD6"/>
<path fill-rule="evenodd" clip-rule="evenodd" d="M253.66 229.226C253.657 229.239 253.676 229.174 253.66 229.226Z" fill="#C5CFD6"/>
<path fill-rule="evenodd" clip-rule="evenodd" d="M253.663 229.218L253.664 229.215C253.663 229.216 253.664 229.217 253.663 229.218" fill="#C5CFD6"/>
<rect x="191.892" y="189.176" width="100" height="66" rx="4" transform="rotate(-14 191.892 189.176)" fill="#94FBAB"/>
<path fill-rule="evenodd" clip-rule="evenodd" d="M233.226 198.734L216.613 251.315L272.58 237.361L233.226 198.734Z" fill="black" fill-opacity="0.2"/>
<path fill-rule="evenodd" clip-rule="evenodd" d="M265.125 203.756L248.71 243.312L298.189 230.976L265.125 203.756Z" fill="black" fill-opacity="0.2"/>
<path fill-rule="evenodd" clip-rule="evenodd" d="M275.824 201.563C280.914 200.294 284.012 195.138 282.743 190.047C281.474 184.956 276.318 181.858 271.227 183.127C266.136 184.397 263.038 189.552 264.307 194.643C265.577 199.734 270.733 202.832 275.824 201.563Z" fill="white"/>
</g>
<defs>
<filter id="filter0_b_1106_825" x="-40" y="-40" width="654" height="654" filterUnits="userSpaceOnUse" color-interpolation-filters="sRGB">
<feFlood flood-opacity="0" result="BackgroundImageFix"/>
<feGaussianBlur in="BackgroundImageFix" stdDeviation="20"/>
<feComposite in2="SourceAlpha" operator="in" result="effect1_backgroundBlur_1106_825"/>
<feBlend mode="normal" in="SourceGraphic" in2="effect1_backgroundBlur_1106_825" result="shape"/>
</filter>
<clipPath id="clip0_1106_825">
<rect width="533" height="493" fill="white" transform="translate(20.5 40.5)"/>
</clipPath>
<clipPath id="clip1_1106_825">
<rect width="396" height="346" fill="white" transform="translate(89.5 40.5)"/>
</clipPath>
<clipPath id="clip2_1106_825">
<rect width="364" height="283" fill="white" transform="translate(105.5 83.5)"/>
</clipPath>
<clipPath id="clip3_1106_825">
<rect width="70" height="194" fill="white" transform="translate(399.5 172.5)"/>
</clipPath>
<clipPath id="clip4_1106_825">
<rect width="34" height="158" fill="white" transform="translate(417.5 190.5)"/>
</clipPath>
<clipPath id="clip5_1106_825">
<rect width="50" height="52" fill="white" transform="translate(409.5 98.5)"/>
</clipPath>
<clipPath id="clip6_1106_825">
<rect width="286" height="282" fill="white" transform="translate(105.5 83.5)"/>
</clipPath>
<clipPath id="clip7_1106_825">
<rect width="286" height="47" fill="white" transform="translate(105.5 83.5)"/>
</clipPath>
<clipPath id="clip8_1106_825">
<rect width="228" height="19" fill="white" transform="translate(114.5 97.6)"/>
</clipPath>
<clipPath id="clip9_1106_825">
<rect width="286" height="39" fill="white" transform="translate(105.5 138.5)"/>
</clipPath>
<clipPath id="clip10_1106_825">
<rect width="228" height="16" fill="white" transform="translate(114.5 150.2)"/>
</clipPath>
<clipPath id="clip11_1106_825">
<rect width="286" height="39" fill="white" transform="translate(105.5 185.5)"/>
</clipPath>
<clipPath id="clip12_1106_825">
<rect width="228" height="16" fill="white" transform="translate(114.5 197.2)"/>
</clipPath>
<clipPath id="clip13_1106_825">
<rect width="286" height="39" fill="white" transform="translate(105.5 326.5)"/>
</clipPath>
<clipPath id="clip14_1106_825">
<rect width="228" height="16" fill="white" transform="translate(114.5 338.2)"/>
</clipPath>
<clipPath id="clip15_1106_825">
<rect width="286" height="39" fill="white" transform="translate(105.5 279.5)"/>
</clipPath>
<clipPath id="clip16_1106_825">
<rect width="228" height="16" fill="white" transform="translate(114.5 291.2)"/>
</clipPath>
<clipPath id="clip17_1106_825">
<rect width="286" height="39" fill="white" transform="translate(105.5 232.5)"/>
</clipPath>
<clipPath id="clip18_1106_825">
<rect width="228" height="16" fill="white" transform="translate(114.5 244.2)"/>
</clipPath>
</defs>
</svg>
