<svg width="72" height="72" viewBox="0 0 72 72" fill="none" xmlns="http://www.w3.org/2000/svg">
<rect width="72" height="72" rx="10" fill="white"/>
<path d="M46.9285 18.0551C46.9285 22.5038 43.3684 26.1101 38.9767 26.1101C34.5851 26.1101 31.0249 22.5038 31.0249 18.0551C31.0249 13.6064 34.5851 10 38.9767 10C43.3684 10 46.9285 13.6064 46.9285 18.0551Z" fill="#203D3B"/>
<path d="M34.6904 53.5099C20.2258 53.5099 8.5 41.6321 8.5 26.9797V14.245C22.9646 14.245 34.6911 26.1232 34.6911 40.7756L34.6904 53.5099Z" fill="#203D3B"/>
<path d="M63.5 22.7348C49.0357 22.7348 37.3099 34.6129 37.3099 49.2653V62C51.7747 62 63.5 50.1217 63.5 35.4694V22.7348Z" fill="#203D3B"/>
</svg>
