<svg width="1287" height="1308" viewBox="0 0 1287 1308" fill="none" xmlns="http://www.w3.org/2000/svg">
<path d="M0 643.674C0 288.183 288.105 0 643.5 0C998.895 0 1287 288.183 1287 643.674V664.326C1287 1019.82 998.895 1308 643.5 1308C288.105 1308 0 1019.82 0 664.326V643.674Z" fill="white"/>
<path d="M839.018 805.488C949.215 950.843 1011 1000.58 1121.19 1025.78L1050.65 1091.18C882.091 981.21 849.45 918.403 839.018 805.488Z" fill="#332429"/>
<path d="M722.021 442.346C739.849 597.861 765.087 670.287 826.977 783.115C828.143 920.538 892.467 992.829 1050.65 1092.9L1033.45 1111.84C670.4 994.804 603.297 578.309 722.021 442.346Z" fill="#332429"/>
<path d="M771.915 669.525C818.371 588.636 928.488 506.025 1012.8 499.141C1006.95 547.801 968.062 585.194 921.606 616.173C875.15 647.152 823.532 755.578 828.694 807.209C814.93 765.904 789.677 714.313 771.915 669.525Z" fill="#332429"/>
<path d="M790.842 956.941C840.739 1106.67 938.813 1123.88 911.287 1163.47C883.761 1203.05 802.979 1106.64 790.842 1065.37C773.635 1006.85 790.842 956.941 790.842 956.941Z" fill="#CDB185"/>
<path d="M654.915 282.285C663.518 122.231 780.518 79.2041 821.811 130.837C883.753 254.752 687.607 237.543 687.607 294.335C687.607 332.828 704.812 390.712 704.812 390.712C739.096 329.473 758.779 310.704 794.283 290.89C770.841 334.955 759.549 358.884 752.989 395.875C743.084 410.434 736.566 418.331 723.739 432.017V445.785L687.607 502.58C687.607 502.58 647.8 414.662 654.915 282.285Z" fill="#49838F"/>
<path d="M276.386 294.335C314.173 262.338 377.9 311.546 391.665 328.757C437.087 385.552 415.753 452.673 446.724 523.236C427.797 523.236 350.371 521.515 281.547 414.809C260.9 382.798 242.538 322.997 276.386 294.335Z" fill="#49838F"/>
<path d="M389.19 208.895C405.007 191.419 436.4 204.841 448.444 225.494C469.091 270.241 460.488 328.757 460.488 333.92C452.567 333.92 400.268 294.336 379.621 263.357C370.978 245.872 375.023 224.55 389.19 208.895Z" fill="#49838F"/>
<path d="M462.209 676.412C336.606 621.336 384.983 537.534 446.724 554.216C746.106 635.105 688.622 865.725 677.282 882.936C547.231 1080.32 462.209 1163.47 324.562 1132.5C367.279 1115.73 390.658 1091.43 426.077 1060.21C469.091 1018.9 606.738 894.992 654.915 745.261C567.165 657.477 488.732 688.043 462.209 676.412Z" fill="#BB885E"/>
<path d="M300.473 788.278C437.228 804.826 551.665 719.434 675.562 872.609L666.973 956.945C599.856 753.857 444.376 856.015 283.264 919.078C140.457 974.976 63.0324 759.547 300.473 788.278Z" fill="#49838F"/>
<path d="M673.84 870.888C737.503 925.962 742.665 1048.16 734.062 1199.61C717.7 1132.49 692.635 1105.38 677.282 1094.63C642.871 1070.53 606.738 1184.12 525.87 1192.73C522.367 1167.43 568.468 1125.6 575.767 1117C623.945 1060.2 673.84 989.641 673.84 870.888Z" fill="#BB885E"/>
<path d="M161.106 430.299C200.68 376.946 254.018 452.673 278.105 504.303C254.015 507.746 240.252 511.187 209.281 511.187C178.31 511.187 129.686 472.658 161.106 430.299Z" fill="#D0B287"/>
<path d="M529.312 151.489C589.912 124.3 656.637 244.425 605.018 419.972C598.138 411.368 563.723 397.598 517.268 335.641C470.812 273.684 481.2 173.075 529.312 151.489Z" fill="#D0B287"/>
<path d="M116.372 581.752C188.939 567.236 211.001 693.619 245.415 734.925C221.325 738.369 202.4 741.926 161.108 740.09C83.6796 736.648 30.3429 598.962 116.372 581.752Z" fill="#215563"/>
<path d="M326.288 554.215C386.508 647.152 302.197 635.106 338.33 734.927C322.842 729.762 278.106 693.62 250.578 629.941C202.96 519.794 299.523 512.909 326.288 554.215Z" fill="#261516"/>
<path d="M990.43 251.31C1009.36 244.682 1053.1 261.954 1047.21 294.336C1036.89 351.13 969.782 337.362 957.738 337.362C919.256 337.362 857.944 399.321 857.944 399.321C857.944 399.321 921.607 275.409 990.43 251.31Z" fill="#215563"/>
<path d="M558.562 409.646C479.415 356.293 443.584 442.427 488.018 495.699C506.945 518.39 550.299 493.217 579.209 516.668C644.591 569.703 663.519 638.863 663.519 638.863C663.519 638.863 686.194 495.682 558.562 409.646Z" fill="#49838F"/>
<path d="M821.814 345.967C851.728 302.981 885.47 185.909 885.47 185.909C885.47 185.909 974.946 239.262 821.814 466.441C773.637 537.914 758.151 623.057 758.151 623.057C758.151 623.057 699.65 521.515 821.814 345.967Z" fill="#3A2F32"/>
<path d="M226.488 702.225C303.915 767.625 389.944 774.509 474.253 771.067C474.253 771.067 364.135 802.918 303.915 780.183C252.297 760.696 226.488 702.225 226.488 702.225Z" fill="#261516"/>
<path d="M832.136 537.006C882.032 440.625 1028.28 344.246 1040.33 383.83C1040.33 383.83 1049.9 440.625 997.312 473.324C914.724 524.677 869.988 502.583 832.136 537.006Z" fill="#D0B287"/>
</svg>
